<!DOCTYPE svg PUBLIC "-//W3C//DTD SVG 20010904//EN" "http://www.w3.org/TR/2001/REC-SVG-20010904/DTD/svg10.dtd">
<svg version="1.0" xmlns="http://www.w3.org/2000/svg" width="547px" height="522px" viewBox="0 0 5470 5220" preserveAspectRatio="xMidYMid meet">
<g id="layer101" fill="#101010" stroke="none">
 <path d="M2745 4053 c-434 -53 -798 -167 -1270 -398 -202 -99 -519 -274 -511 -282 2 -3 39 13 82 35 182 91 474 209 739 299 551 185 1078 242 1460 156 225 -51 423 -177 484 -308 41 -87 29 -178 -31 -231 -55 -51 -108 -68 -220 -72 -124 -5 -212 11 -354 64 -51 19 -96 34 -100 34 -32 0 243 -141 361 -185 199 -74 395 -87 507 -32 261 128 185 502 -148 722 -139 93 -324 159 -529 190 -91 14 -384 19 -470 8z"/>
 <path d="M4058 3023 l-107 -53 -60 16 c-48 14 -72 15 -120 7 -34 -5 -61 -6 -61 -1 0 4 -21 8 -47 8 -66 0 -110 -28 -119 -76 -4 -21 -20 -59 -37 -85 -24 -39 -37 -50 -66 -56 -66 -14 -222 -5 -305 16 -74 20 -104 33 -169 76 -15 9 -27 13 -27 7 0 -17 81 -63 153 -88 116 -39 249 -50 355 -28 17 3 22 0 22 -15 0 -15 -12 -21 -67 -32 -97 -18 -294 -16 -368 4 -61 17 -81 16 -48 -1 48 -25 134 -34 274 -29 79 4 159 9 177 13 30 6 33 4 30 -12 -2 -12 -24 -28 -63 -43 -51 -21 -77 -25 -170 -25 -60 -1 -128 2 -150 7 l-40 7 34 -16 c48 -22 156 -29 236 -15 76 13 211 71 183 78 -18 4 -26 33 -10 33 5 0 17 7 28 16 18 15 18 15 -3 9 -36 -10 -29 24 7 36 37 13 40 28 4 21 l-27 -5 19 33 c24 40 68 75 120 94 22 7 57 23 79 35 40 21 122 28 173 15 21 -6 21 -7 5 -21 -17 -13 -16 -14 5 -8 29 8 78 -3 66 -15 -5 -4 -18 -10 -29 -13 -11 -3 1 -5 28 -6 47 -1 69 -21 22 -21 -14 0 -25 -5 -25 -10 0 -11 15 -9 128 21 79 21 192 73 192 89 0 6 -24 -2 -52 -16 -81 -41 -190 -76 -202 -64 -6 6 4 15 30 25 21 9 68 30 103 46 79 36 139 47 152 28 19 -30 9 -62 -31 -101 -42 -39 -44 -46 -7 -27 59 31 95 101 68 133 -15 18 -5 25 51 32 84 12 157 -42 143 -105 -8 -36 -72 -111 -120 -141 -31 -19 -37 -20 -62 -7 -38 20 -203 71 -209 65 -2 -3 37 -20 88 -38 142 -49 178 -84 194 -185 l8 -50 7 35 c9 38 -2 93 -25 126 -14 19 -12 23 37 56 55 37 102 102 113 155 9 47 -41 96 -117 113 -54 12 -101 5 -184 -26 -11 -5 -14 -2 -9 11 6 14 -2 12 -33 -9 -32 -21 -161 -66 -190 -66 -4 0 24 18 62 41 76 44 80 47 74 53 -2 2 -52 -21 -111 -51z m-354 -48 c0 -5 -14 -14 -30 -18 -16 -5 -50 -19 -76 -32 -27 -12 -48 -20 -48 -16 0 17 36 54 64 67 34 15 91 15 90 -1z m389 -6 c-23 -11 -57 -22 -75 -24 -21 -3 -8 4 32 19 78 29 102 32 43 5z"/>
 <path d="M724 2955 c34 -394 151 -737 343 -1009 86 -121 260 -290 378 -368 183 -121 333 -188 550 -243 323 -83 687 -95 1025 -35 58 10 85 17 60 15 -142 -13 -487 -17 -592 -6 -550 54 -971 242 -1282 572 -251 267 -412 630 -467 1054 -14 113 -24 126 -15 20z"/>
 <path d="M2726 2907 c-174 -319 -423 -452 -778 -417 -100 10 -326 53 -353 67 -7 4 -7 3 0 -4 18 -18 217 -90 315 -114 138 -33 337 -34 434 -1 189 63 307 197 395 446 17 49 30 90 29 92 -2 1 -21 -30 -42 -69z"/>
 <path d="M3684 2885 c-21 -52 -17 -62 14 -33 16 16 42 28 62 30 l35 3 -39 18 c-52 23 -55 22 -72 -18z"/>
 <path d="M4083 2873 c4 -3 10 -3 14 0 3 4 0 7 -7 7 -7 0 -10 -3 -7 -7z"/>
 <path d="M4113 2863 c4 -3 10 -3 14 0 3 4 0 7 -7 7 -7 0 -10 -3 -7 -7z"/>
 <path d="M3925 2728 c13 -33 14 -33 80 -32 36 0 71 6 77 12 9 9 -4 12 -53 12 -53 0 -69 4 -84 20 -27 30 -36 24 -20 -12z"/>
 <path d="M3673 2629 c8 -28 -8 -68 -41 -101 -36 -39 -15 -34 32 6 36 31 38 35 31 74 -4 23 -11 42 -17 42 -6 0 -8 -9 -5 -21z"/>
 <path d="M4460 2527 c0 -3 54 -48 121 -102 131 -105 156 -138 124 -162 -16 -12 -44 -14 -152 -9 -73 3 -133 4 -133 2 0 -2 37 -9 83 -15 124 -18 124 -18 64 -50 -65 -34 -103 -83 -186 -243 -36 -68 -87 -153 -115 -191 -90 -122 -237 -220 -416 -278 -102 -33 -86 -37 29 -8 203 51 363 149 445 273 19 29 67 117 106 194 105 209 161 258 312 273 43 4 82 10 88 14 44 27 -57 121 -256 237 -34 20 -73 44 -88 53 -14 10 -26 15 -26 12z"/>
 <path d="M3649 1898 c-44 -69 -113 -138 -138 -138 -21 0 -31 18 -31 61 0 16 -5 29 -11 29 -17 0 -6 -117 13 -136 14 -14 19 -13 53 17 33 29 113 138 144 197 21 39 5 24 -30 -30z"/>
 <path d="M3148 1323 c7 -3 16 -2 19 1 4 3 -2 6 -13 5 -11 0 -14 -3 -6 -6z"/>
 </g>

</svg>